<mxfile host="65bd71144e" modified="2021-01-30T15:39:03.849Z" agent="5.0 (X11; Linux x86_64) AppleWebKit/537.36 (KHTML, like Gecko) Code/1.51.1 Chrome/83.0.4103.122 Electron/9.3.3 Safari/537.36" etag="G7kS7fhmEPbDBHV3-B-d" version="13.10.0" type="embed">
    <diagram id="hLffJpjC34F4lq2qfQ25" name="Page-1">
        <mxGraphModel dx="614" dy="274" grid="1" gridSize="10" guides="1" tooltips="1" connect="1" arrows="1" fold="1" page="1" pageScale="1" pageWidth="850" pageHeight="1100" math="0" shadow="0">
            <root>
                <mxCell id="0"/>
                <mxCell id="1" parent="0"/>
                <object label="robot" type="robot" movable="true" speed="5" id="6">
                    <mxCell style="ellipse;whiteSpace=wrap;html=1;aspect=fixed;fillColor=#e3c800;strokeColor=#B09500;fontColor=#ffffff;" parent="1" vertex="1">
                        <mxGeometry x="10" y="10" width="30" height="30" as="geometry"/>
                    </mxCell>
                </object>
            </root>
        </mxGraphModel>
    </diagram>
</mxfile>